<?xml version="1.0" encoding="UTF-8" standalone="no"?>
<!DOCTYPE svg PUBLIC "-//W3C//DTD SVG 1.1//EN"
 "http://www.w3.org/Graphics/SVG/1.1/DTD/svg11.dtd">
<!-- Generated by graphviz version 2.46.1 (20210213.1702)
 -->
<!-- Title: g Pages: 1 -->
<svg width="1943pt" height="116pt"
 viewBox="0.00 0.00 1942.50 116.00" xmlns="http://www.w3.org/2000/svg" xmlns:xlink="http://www.w3.org/1999/xlink">
<g id="graph0" class="graph" transform="scale(1 1) rotate(0) translate(4 112)">
<title>g</title>
<polygon fill="white" stroke="transparent" points="-4,4 -4,-112 1938.5,-112 1938.5,4 -4,4"/>
<!-- _CheckForUnsupportedTargetFramework -->
<g id="node1" class="node">
<title>_CheckForUnsupportedTargetFramework</title>
<polygon fill="white" stroke="black" points="245,-36 0,-36 0,0 245,0 245,-36"/>
<text text-anchor="start" x="8" y="-14.3" font-family="Times,serif" font-size="14.00">_CheckForUnsupportedTargetFramework</text>
</g>
<!-- Restore -->
<g id="node2" class="node">
<title>Restore</title>
<polygon fill="aliceblue" stroke="black" points="904.5,-108 846.5,-108 846.5,-72 904.5,-72 904.5,-108"/>
<text text-anchor="start" x="854.5" y="-86.3" font-family="Times,serif" font-size="14.00">Restore</text>
</g>
<!-- Restore&#45;&gt;_CheckForUnsupportedTargetFramework -->
<g id="edge1" class="edge">
<title>Restore&#45;&gt;_CheckForUnsupportedTargetFramework</title>
<path fill="none" stroke="#ee7600" d="M836.3,-86.24C738.17,-79.21 474.05,-59.5 254.5,-36 251.4,-35.67 248.26,-35.32 245.09,-34.97"/>
<polygon fill="#ee7600" stroke="#ee7600" points="836.13,-89.74 846.36,-86.96 836.63,-82.76 836.13,-89.74"/>
</g>
<!-- _CollectTargetFrameworkForTelemetry -->
<g id="node3" class="node">
<title>_CollectTargetFrameworkForTelemetry</title>
<polygon fill="aliceblue" stroke="black" points="499.5,-36 263.5,-36 263.5,0 499.5,0 499.5,-36"/>
<text text-anchor="start" x="271.5" y="-14.3" font-family="Times,serif" font-size="14.00">_CollectTargetFrameworkForTelemetry</text>
</g>
<!-- Restore&#45;&gt;_CollectTargetFrameworkForTelemetry -->
<g id="edge2" class="edge">
<title>Restore&#45;&gt;_CollectTargetFrameworkForTelemetry</title>
<path fill="none" stroke="blue" d="M846.44,-84.88C782,-75.75 623.79,-53.33 509.81,-37.18"/>
<polygon fill="blue" stroke="blue" points="510.01,-33.68 499.62,-35.74 509.03,-40.61 510.01,-33.68"/>
</g>
<!-- _CheckForUnsupportedNETCoreVersion -->
<g id="node4" class="node">
<title>_CheckForUnsupportedNETCoreVersion</title>
<polygon fill="aliceblue" stroke="black" points="757.5,-36 517.5,-36 517.5,0 757.5,0 757.5,-36"/>
<text text-anchor="start" x="525.5" y="-14.3" font-family="Times,serif" font-size="14.00">_CheckForUnsupportedNETCoreVersion</text>
</g>
<!-- Restore&#45;&gt;_CheckForUnsupportedNETCoreVersion -->
<g id="edge3" class="edge">
<title>Restore&#45;&gt;_CheckForUnsupportedNETCoreVersion</title>
<path fill="none" stroke="#ee7600" d="M836.58,-77.55C798.31,-66.3 739.44,-48.98 695.63,-36.1"/>
<polygon fill="#ee7600" stroke="#ee7600" points="835.74,-80.95 846.32,-80.42 837.71,-74.24 835.74,-80.95"/>
</g>
<!-- _CheckForEolTargetFrameworks -->
<g id="node5" class="node">
<title>_CheckForEolTargetFrameworks</title>
<polygon fill="white" stroke="black" points="975,-36 776,-36 776,0 975,0 975,-36"/>
<text text-anchor="start" x="784" y="-14.3" font-family="Times,serif" font-size="14.00">_CheckForEolTargetFrameworks</text>
</g>
<!-- Restore&#45;&gt;_CheckForEolTargetFrameworks -->
<g id="edge4" class="edge">
<title>Restore&#45;&gt;_CheckForEolTargetFrameworks</title>
<path fill="none" stroke="darkgray" d="M875.5,-71.7C875.5,-63.98 875.5,-54.71 875.5,-46.11"/>
<polygon fill="darkgray" stroke="darkgray" points="879,-46.1 875.5,-36.1 872,-46.1 879,-46.1"/>
</g>
<!-- _CheckForUnsupportedCppNETCoreVersion -->
<g id="node6" class="node">
<title>_CheckForUnsupportedCppNETCoreVersion</title>
<polygon fill="aliceblue" stroke="black" points="1256,-36 993,-36 993,0 1256,0 1256,-36"/>
<text text-anchor="start" x="1001" y="-14.3" font-family="Times,serif" font-size="14.00">_CheckForUnsupportedCppNETCoreVersion</text>
</g>
<!-- Restore&#45;&gt;_CheckForUnsupportedCppNETCoreVersion -->
<g id="edge5" class="edge">
<title>Restore&#45;&gt;_CheckForUnsupportedCppNETCoreVersion</title>
<path fill="none" stroke="#ee7600" d="M914.21,-78.12C954.23,-66.87 1017.27,-49.15 1063.9,-36.04"/>
<polygon fill="#ee7600" stroke="#ee7600" points="913.23,-74.76 904.55,-80.83 915.12,-81.5 913.23,-74.76"/>
</g>
<!-- _CheckForUnsupportedNETStandardVersion -->
<g id="node7" class="node">
<title>_CheckForUnsupportedNETStandardVersion</title>
<polygon fill="white" stroke="black" points="1536.5,-36 1274.5,-36 1274.5,0 1536.5,0 1536.5,-36"/>
<text text-anchor="start" x="1282.5" y="-14.3" font-family="Times,serif" font-size="14.00">_CheckForUnsupportedNETStandardVersion</text>
</g>
<!-- Restore&#45;&gt;_CheckForUnsupportedNETStandardVersion -->
<g id="edge6" class="edge">
<title>Restore&#45;&gt;_CheckForUnsupportedNETStandardVersion</title>
<path fill="none" stroke="#ee7600" d="M914.76,-83.81C990.17,-73.85 1158.28,-51.65 1276.65,-36.02"/>
<polygon fill="#ee7600" stroke="#ee7600" points="914.21,-80.36 904.75,-85.14 915.12,-87.3 914.21,-80.36"/>
</g>
<!-- _CheckForUnsupportedTargetFrameworkAndFeatureCombination -->
<g id="node8" class="node">
<title>_CheckForUnsupportedTargetFrameworkAndFeatureCombination</title>
<polygon fill="white" stroke="black" points="1934.5,-36 1554.5,-36 1554.5,0 1934.5,0 1934.5,-36"/>
<text text-anchor="start" x="1562.5" y="-14.3" font-family="Times,serif" font-size="14.00">_CheckForUnsupportedTargetFrameworkAndFeatureCombination</text>
</g>
<!-- Restore&#45;&gt;_CheckForUnsupportedTargetFrameworkAndFeatureCombination -->
<g id="edge7" class="edge">
<title>Restore&#45;&gt;_CheckForUnsupportedTargetFrameworkAndFeatureCombination</title>
<path fill="none" stroke="#ee7600" d="M914.83,-85.98C1018.19,-78.01 1305.99,-55.7 1545.5,-36 1548.44,-35.76 1551.4,-35.51 1554.38,-35.27"/>
<polygon fill="#ee7600" stroke="#ee7600" points="914.27,-82.51 904.57,-86.77 914.8,-89.49 914.27,-82.51"/>
</g>
</g>
</svg>
